<?xml version="1.0" encoding="utf-8"?><svg viewBox="0 0 25 25" xmlns="http://www.w3.org/2000/svg" xmlns:xlink="http://www.w3.org/1999/xlink"><style>:root>svg{display:none}:root>svg:target{display:block}</style><svg fill="none" viewBox="0 0 25 25" id="icon__arrow" xmlns="http://www.w3.org/2000/svg"><path fill-rule="evenodd" clip-rule="evenodd" d="M8.6 8.4l4.6 4.6-4.6 4.6L10 19l6-6-6-6-1.4 1.4z" fill="#48494D" fill-opacity=".5"/></svg><svg fill="none" viewBox="0 0 14 18" id="icon__bookmark" xmlns="http://www.w3.org/2000/svg"><path d="M1 1h12v15l-6-4.865L1 16V1z" stroke="#FF7931" stroke-width="1.5"/></svg><svg fill="none" viewBox="0 0 18 16" id="icon__comments" xmlns="http://www.w3.org/2000/svg"><path d="M9 13c4.418 0 8-2.686 8-6s-3.582-6-8-6-8 2.686-8 6c0 2.236 1.631 4.187 4.05 5.219.057 1.388-.483 2.726-1.764 2.726.99.179 3.395.017 5.417-1.95C8.8 13 8.9 13 9 13z" stroke="#fff" stroke-opacity=".4"/></svg><svg fill="#A8A8A8" viewBox="0 0 11 20" id="icon__rectangle--next" xmlns="http://www.w3.org/2000/svg"><path d="M9.719 9.671L1.173 1.205l.036 7.758.043 9.253L9.72 9.671z" stroke="#A8A8A8"/></svg><svg fill="#A8A8A8" viewBox="0 0 10 20" id="icon__rectangle--prev" xmlns="http://www.w3.org/2000/svg"><path d="M.707 9.858l8.545-8.466-.036 7.758-.043 9.253L.707 9.858z" stroke="#A8A8A8"/></svg><svg fill="none" viewBox="0 0 24 16" id="icon__viewers" xmlns="http://www.w3.org/2000/svg"><path d="M12 7.462c.32 0 .579-.242.579-.539 0-.297-.26-.538-.579-.538-.32 0-.579.24-.579.538 0 .297.26.539.579.539z" stroke="#fff" stroke-opacity=".4" stroke-linecap="round" stroke-linejoin="round"/><path d="M12 12.846c2.878 0 5.21-2.17 5.21-4.846S14.878 3.154 12 3.154 6.79 5.324 6.79 8c0 2.677 2.332 4.846 5.21 4.846z" stroke="#fff" stroke-opacity=".4" stroke-linecap="round" stroke-linejoin="round"/><path d="M1 8s3.929-7 11-7 11 7 11 7-3.929 7-11 7S1 8 1 8z" stroke="#fff" stroke-opacity=".4" stroke-linecap="round" stroke-linejoin="round"/></svg></svg>